PathFileType	4	(X/Y/Z)	D:\TRACE\spotREDO_2-26-24\spot_Both_Motion_3_3-v60.trc
DataRate	CameraRate	NumFrames	NumMarkers	Units	OrigDataRate	OrigDataStartFrame	OrigNumFrames
100.00	100.00	      39	9	mm	100.00	3501	      7000
Frame#	Time	front left toe			Front right toe			aft left toe			aft right toe			Arm			FL body			FR body			AL Body			AR Body			
		X1	Y1	Z1	X2	Y2	Z2	X3	Y3	Z3	X4	Y4	Z4	X5	Y5	Z5	X6	Y6	Z6	X7	Y7	Z7	X8	Y8	Z8	X9	Y9	Z9	

3501	35.000	-95.89281	62.64628	-377.62738	322.27197	12.03357	-559.71814	20.07710	20.74616	174.31833	405.12262	25.90744	55.07237	108.41808	723.20746	-738.19238	31.74423	582.70422	-501.36758	185.28581	589.93829	-523.31464	148.83379	549.23315	374.08588	295.51859	545.52991	356.41156	
3502	35.010	-92.68219	48.81191	-387.69022	322.84073	11.68591	-559.47748	19.93873	20.45555	174.29681	404.98700	26.13111	55.16130	108.35796	721.04791	-738.94788	30.53532	583.17145	-500.42761	183.84241	590.76245	-521.87317	145.69719	549.35034	375.39777	292.73370	545.68036	357.27982	
3503	35.020	-90.10974	34.40257	-395.74490	322.38541	11.23731	-559.89636	19.85625	20.35117	174.19948	404.83694	26.37264	55.20513	108.51830	719.33734	-739.91962	29.26615	583.46777	-499.34665	182.81877	591.15515	-520.49719	143.67491	549.64288	376.65680	289.96005	546.70264	359.55295	
3504	35.030	-89.18945	20.93754	-403.26028	323.21121	10.67522	-559.64838	19.39799	20.19943	174.03696	404.54630	26.65324	55.14635	107.89556	718.23676	-740.68207	27.67134	583.19061	-498.51529	181.27914	590.98993	-519.32001	137.73547	551.20044	377.71814	286.28256	547.34918	361.08792	
3505	35.040	-89.56004	14.24271	-408.55737	323.41324	10.24149	-559.65765	18.61777	20.40442	173.67764	404.36572	26.79166	55.07400	107.17568	717.32013	-742.09686	26.17625	582.64465	-497.80695	179.66968	590.43628	-518.37793	135.49980	551.88000	378.95343	283.52203	548.06055	362.18619	
3506	35.050	-91.28014	13.16780	-406.54047	322.90991	10.10531	-559.77216	18.87410	19.95716	173.51543	404.34619	26.48287	55.05510	106.58569	716.72400	-742.81342	24.42220	583.18036	-497.00742	177.69087	589.98639	-517.47137	133.17535	552.93970	379.96765	280.19583	548.68640	363.28064	
3507	35.060	-92.17300	14.12500	-404.86838	322.47208	11.00287	-560.68372	16.54632	19.51665	173.53822	404.18130	27.22132	53.81316	105.58183	716.86768	-743.84412	21.92192	584.33386	-496.27670	175.77968	590.60236	-516.30835	130.63411	553.67218	380.84665	277.92941	548.84906	363.79004	
3508	35.070	-91.28152	14.47677	-406.12131	321.74023	11.18481	-560.55511	16.45303	18.40754	174.45282	403.25671	27.94707	54.69394	105.19611	717.85834	-744.03430	19.72879	585.41827	-495.42209	173.63263	590.99750	-515.67511	128.74992	555.37695	381.70026	275.90515	549.60400	364.95297	
3509	35.080	-91.81879	14.44634	-405.21512	322.03690	11.15717	-560.54193	17.17384	18.28570	173.78862	402.13269	28.57293	54.67960	105.20718	718.69928	-744.46240	17.80340	585.76111	-494.79684	171.47900	590.26953	-515.12524	126.74304	557.34802	382.32617	274.03876	550.66083	365.12698	
3510	35.090	-91.95055	13.84108	-405.54932	322.45520	11.05297	-560.21173	17.73174	19.09313	173.40848	402.12436	28.72940	54.87258	106.30843	718.98065	-745.57117	15.77349	585.72900	-494.27377	169.50980	590.05939	-514.79724	124.50391	558.97009	382.78815	271.62219	552.23242	366.03247	
3511	35.100	-91.59182	13.29571	-405.87668	321.95340	10.80818	-560.67902	17.75872	18.90924	173.34245	402.25507	28.54820	54.56659	106.97366	719.15778	-746.27026	13.96542	585.74713	-494.11502	168.02362	589.63672	-514.64227	122.60714	560.16467	383.02466	269.69174	553.24683	366.42465	
3512	35.110	-91.68991	13.03137	-405.90070	321.76248	10.50151	-560.56226	17.62528	18.55917	173.26613	402.20673	28.39145	54.35095	107.71735	719.44257	-747.61499	12.46413	585.79675	-493.90457	166.58200	589.56604	-514.27728	121.24142	561.49152	383.19980	268.34241	553.97235	366.08188	
3513	35.120	-91.75876	13.02030	-405.86298	321.90048	10.57833	-560.65613	17.71535	18.74465	173.14796	402.09937	28.55752	54.37153	108.20537	719.75598	-748.41528	11.02580	585.66473	-493.94086	165.26035	589.51721	-514.29016	119.60473	562.41534	383.31537	267.04443	555.19781	366.29190	
3514	35.130	-91.86051	12.94300	-405.87155	321.97592	10.76277	-560.65149	17.75378	18.93637	173.05608	402.08224	28.71120	54.21084	108.50063	720.18243	-748.86163	9.78309	585.52521	-494.20056	163.78436	589.46960	-514.60284	118.21842	563.15289	383.28180	265.63297	556.09845	366.99481	
3515	35.140	-91.97276	12.84747	-405.93362	321.86768	10.65285	-560.81494	17.66068	18.75491	172.99690	402.05170	28.75551	54.06738	108.22765	720.06818	-749.21417	8.67704	585.37988	-494.39441	162.98050	589.26178	-514.58612	116.80003	563.51093	383.17477	264.00211	556.32538	366.38965	
3516	35.150	-92.02480	12.62145	-406.05862	321.73740	10.47442	-560.80322	17.54699	18.59075	172.96669	402.03189	28.79862	53.99172	107.26376	720.21729	-750.11774	7.79830	585.29895	-494.59210	161.87193	589.40076	-514.99445	115.31786	563.67615	382.73181	262.52789	556.71417	366.11612	
3517	35.160	-92.02332	12.43659	-406.11447	321.74362	10.35473	-560.89764	17.62975	18.49146	172.90053	401.93039	28.86345	53.79631	106.12141	720.22186	-750.15039	6.98544	585.15076	-494.83774	161.04036	589.34869	-515.41650	114.22401	563.91425	382.41544	261.34512	557.01782	365.99738	
3518	35.170	-92.07410	12.31136	-406.09030	321.79797	10.35384	-560.85046	17.57074	18.51187	172.81531	401.74185	28.82903	53.72018	105.72255	719.90875	-750.04858	5.91208	585.15784	-495.64117	160.34445	589.37201	-515.93707	113.44909	564.16394	381.89932	260.53937	557.34918	365.03506	
3519	35.180	-92.12405	12.29569	-406.08194	321.62036	10.27878	-561.04211	17.71169	18.52545	172.76115	401.83701	29.02111	53.72874	104.93324	719.63428	-750.24261	5.22667	584.88794	-496.09665	159.48276	589.30853	-516.32141	112.76418	564.54486	381.31064	260.14758	557.81049	365.05304	
3520	35.190	-92.21378	11.90039	-405.97153	321.60257	10.19014	-561.13715	17.73437	18.57209	172.77068	401.88226	29.07066	53.62825	104.13779	719.17175	-750.41846	3.90261	585.06012	-496.99197	158.53725	589.19128	-516.89197	112.38322	564.90118	380.79816	259.64615	558.14746	364.33450	
3521	35.200	-92.34515	11.54023	-406.00131	320.75922	10.26855	-561.48877	17.70444	18.62140	172.74620	401.87738	28.86427	53.33797	103.72578	718.72913	-750.54633	3.43887	584.25885	-497.14270	157.52219	588.78485	-517.68268	112.06483	565.09729	380.29648	259.62460	558.56464	363.88071	
3522	35.210	-92.30857	11.44410	-406.13147	320.99670	10.40869	-561.42505	17.69288	18.67225	172.64304	402.17111	28.83735	53.19965	103.62823	718.26764	-750.51239	2.67973	583.88739	-497.71494	156.78847	588.62921	-518.26813	111.78034	565.42383	379.57504	259.05338	558.80780	362.46078	
3523	35.220	-92.34135	11.28750	-406.11725	320.72888	10.30787	-561.57776	17.67658	18.77221	172.55553	402.13968	28.80959	53.16280	103.50253	717.81354	-750.54193	1.70938	583.62622	-498.30838	156.00165	588.42139	-519.14215	111.64316	565.89349	378.77109	258.86087	559.54987	362.13345	
3524	35.230	-92.48328	11.34289	-406.06363	321.33014	10.07936	-561.46564	17.75811	18.96442	172.50987	402.29126	28.74504	53.08045	103.91018	717.16858	-750.57922	1.17402	583.30652	-499.06186	155.47221	588.17731	-519.68658	111.78850	566.43604	378.09229	258.84665	560.02356	361.02621	
3525	35.240	-92.42693	11.37370	-406.12427	320.74414	10.27986	-561.66486	17.88389	19.00488	172.47289	402.37939	28.80396	53.00058	104.38683	716.74585	-750.52185	0.79762	583.05518	-499.61005	154.63124	587.95648	-520.67609	111.80453	566.76489	377.29025	258.90506	560.15045	359.64438	
3526	35.250	-92.40160	11.34523	-406.13525	321.43823	10.02151	-561.52533	17.91477	19.01630	172.44720	402.43860	28.81397	52.88833	104.78622	716.41791	-750.67511	0.29409	583.06207	-500.58337	154.24088	587.83453	-521.48657	111.78477	567.12335	376.52884	259.28281	560.94080	359.88647	
3527	35.260	-92.35062	11.22646	-406.14517	321.50574	10.04207	-561.51208	17.89677	18.99721	172.42319	402.31143	28.75859	52.78925	105.23235	716.14771	-750.87238	0.27378	582.89111	-501.38870	154.18211	587.86853	-522.19446	111.51815	567.32312	375.69980	258.37878	561.10760	358.62665	
3528	35.270	-92.30789	11.13375	-406.16782	321.42865	10.09301	-561.45416	17.92860	18.96463	172.41058	402.37589	28.73255	52.72231	105.52990	715.85162	-751.06964	0.19358	582.81781	-501.93234	153.86902	587.79474	-523.22626	111.16972	567.51508	374.82458	258.19583	561.31116	357.92099	
3529	35.280	-92.22793	11.27929	-406.29126	321.37256	10.14560	-561.40839	17.88403	18.93112	172.35307	402.30823	28.71267	52.66416	105.76207	715.73572	-751.11066	-0.06651	583.05524	-503.00269	154.05200	587.93011	-524.08246	110.89122	567.68677	374.12442	257.83307	561.37988	356.95441	
3530	35.290	-92.27068	11.39009	-406.39542	320.67484	10.34498	-561.65894	17.91336	18.93178	172.36732	402.38580	28.78282	52.69538	105.81837	715.73218	-751.00543	0.49051	583.13715	-503.78070	154.47510	588.07452	-524.53339	110.50598	567.84357	373.19830	257.47922	561.49536	356.35187	
3531	35.300	-92.11554	11.89492	-406.54221	321.31714	10.17843	-561.42792	17.94294	18.93426	172.37967	402.41806	28.78839	52.71424	106.09672	715.21906	-750.82959	0.96656	583.24591	-504.55273	155.00407	588.31323	-525.25897	110.27474	567.78015	372.38147	257.20865	561.42804	355.71033	
3532	35.310	-91.38058	12.36852	-406.56024	321.62952	10.09992	-561.41418	17.86282	18.80514	172.27856	402.39459	28.75771	52.80681	105.12878	714.00397	-750.25299	1.30860	583.63672	-505.67877	155.37111	588.60339	-526.20593	109.67449	567.45862	371.54413	256.98941	561.15778	354.93594	
3533	35.320	-91.53613	12.48810	-407.02786	320.84528	10.51079	-562.19006	17.76091	18.78904	172.17139	402.35919	28.92993	52.56533	104.26538	711.55426	-750.03418	1.95515	584.04120	-506.54120	155.80527	588.79364	-526.94458	109.27317	566.82007	370.87341	256.52490	560.59766	354.37323	
3534	35.330	-91.37551	12.47900	-407.08588	322.03204	10.43920	-561.10663	17.67645	18.73197	172.19099	402.23779	28.90152	52.74743	102.62592	707.82904	-749.78558	2.59649	583.92084	-507.49432	156.75540	588.64404	-527.53906	108.91721	566.28430	370.34836	256.19833	560.15796	354.06506	
3535	35.340	-91.53185	12.59011	-407.03378	322.13223	10.42764	-561.22943	17.68996	18.75334	172.21552	402.19882	28.88306	52.91330	101.04674	702.24951	-749.93744	3.31631	583.60016	-507.89948	157.29137	588.32300	-527.91736	108.58967	566.10327	369.77640	255.71646	559.64313	353.87421	
3536	35.350	-91.58396	12.67237	-406.93173	322.59479	10.30400	-561.03729	17.67251	18.68608	172.22180	402.28116	28.86022	53.03719	98.76984	695.99445	-750.77692	3.94489	582.96710	-508.48804	158.28253	587.29968	-528.23877	108.68416	566.14545	369.50336	255.80840	559.61078	353.48996	
3537	35.360	-91.63273	12.74454	-406.91510	322.53732	10.28219	-561.03326	17.64317	18.67565	172.24625	402.08664	28.88753	53.24810	96.32925	689.98065	-751.66162	4.66582	581.54175	-508.87988	158.53940	585.81836	-528.83978	108.97701	566.70721	369.04871	256.22672	559.88501	353.05804	
3538	35.370	-91.81516	12.85278	-406.78564	322.69073	10.44969	-560.83856	17.68915	18.71806	172.24727	401.95255	28.86823	53.28088	94.87361	684.49921	-752.49506	4.92685	579.80450	-509.28897	159.16507	583.79773	-528.93921	109.67876	567.38794	368.62360	256.82840	560.36639	352.49219	
3539	35.380	-91.91286	12.87297	-406.67694	322.54691	10.90696	-560.60651	17.80658	18.82820	172.36079	401.97922	28.79655	53.26170	93.60141	680.19849	-753.00134	5.03861	577.70276	-509.85834	159.04495	581.61487	-529.52344	111.45873	567.74597	367.91791	257.76578	561.17090	352.04736	
